<svg xmlns="http://www.w3.org/2000/svg" viewBox="0 0 1440 320"><path fill="#0099ff" fill-opacity="1" d="M0,128L26.7,133.3C53.3,139,107,149,160,144C213.3,139,267,117,320,117.3C373.3,117,427,139,480,138.7C533.3,139,587,117,640,96C693.3,75,747,53,800,53.3C853.3,53,907,75,960,85.3C1013.3,96,1067,96,1120,96C1173.3,96,1227,96,1280,90.7C1333.3,85,1387,75,1413,69.3L1440,64L1440,320L1413.3,320C1386.7,320,1333,320,1280,320C1226.7,320,1173,320,1120,320C1066.7,320,1013,320,960,320C906.7,320,853,320,800,320C746.7,320,693,320,640,320C586.7,320,533,320,480,320C426.7,320,373,320,320,320C266.7,320,213,320,160,320C106.7,320,53,320,27,320L0,320Z"></path></svg>