<svg width="200" height="200" viewBox="0 0 200 200" fill="none" xmlns="http://www.w3.org/2000/svg">
<path d="M165 0H35C15.67 0 0 15.67 0 35V165C0 184.33 15.67 200 35 200H165C184.33 200 200 184.33 200 165V35C200 15.67 184.33 0 165 0Z" fill="#071D34"/>
<path d="M100.861 143H53.1696C52.3899 143 52 142.566 52 141.697V58.0424C52 57.3475 52.3465 57 53.0396 57H66.9443C67.4641 57 67.724 57.304 67.724 57.9121V130.752H103.33C104.11 130.752 104.413 131.099 104.24 131.794L102.161 141.958C101.988 142.653 101.555 143 100.861 143Z" fill="#55A5F9"/>
<path d="M111.264 79.5424H123.479C124.172 79.5424 124.648 79.8899 124.908 80.5848C125.601 82.3222 126.035 84.8414 126.208 88.1424C131.233 81.6273 137.86 78.3697 146.09 78.3697C146.697 78.3697 147 78.6737 147 79.2818V92.4424C147 93.1374 146.653 93.4414 145.96 93.3545C138.423 92.9202 132.489 94.8747 128.157 99.2182C127.377 100 126.988 101.042 126.988 102.345V142.088C126.988 142.696 126.641 143 125.948 143H112.303C111.523 143 111.134 142.653 111.134 141.958V97.9152C111.134 90.8788 110.917 85.0586 110.484 80.4545C110.397 79.8465 110.657 79.5424 111.264 79.5424Z" fill="#55A5F9"/>
</svg>
