<svg width="188" height="187" viewBox="0 0 188 187" fill="none" xmlns="http://www.w3.org/2000/svg">
<mask id="mask0_201_477" style="mask-type:luminance" maskUnits="userSpaceOnUse" x="4" y="4" width="179" height="179">
<path d="M4.86816 4.54395H182.844V182.52H4.86816V4.54395Z" fill="white"/>
</mask>
<g mask="url(#mask0_201_477)">
<path d="M182.844 93.532C182.844 94.9885 182.808 96.4436 182.737 97.8986C182.665 99.3532 182.559 100.805 182.416 102.254C182.273 103.704 182.095 105.149 181.881 106.589C181.667 108.03 181.418 109.464 181.134 110.893C180.85 112.321 180.531 113.741 180.178 115.154C179.823 116.567 179.435 117.97 179.013 119.364C178.59 120.757 178.133 122.14 177.643 123.511C177.152 124.882 176.628 126.241 176.07 127.586C175.513 128.932 174.923 130.263 174.301 131.579C173.678 132.896 173.023 134.196 172.337 135.481C171.65 136.765 170.932 138.032 170.184 139.281C169.435 140.53 168.656 141.76 167.847 142.971C167.038 144.182 166.199 145.372 165.332 146.542C164.464 147.712 163.569 148.859 162.645 149.985C161.721 151.111 160.77 152.214 159.792 153.293C158.814 154.372 157.81 155.426 156.78 156.456C155.751 157.486 154.696 158.49 153.617 159.468C152.538 160.446 151.436 161.397 150.309 162.321C149.184 163.244 148.036 164.14 146.866 165.008C145.696 165.875 144.506 166.714 143.295 167.523C142.084 168.332 140.854 169.111 139.605 169.859C138.356 170.608 137.089 171.326 135.805 172.013C134.52 172.699 133.22 173.353 131.903 173.976C130.587 174.599 129.256 175.189 127.91 175.746C126.565 176.303 125.207 176.828 123.835 177.318C122.464 177.809 121.082 178.266 119.688 178.688C118.294 179.111 116.891 179.499 115.478 179.853C114.066 180.207 112.645 180.526 111.217 180.81C109.788 181.094 108.354 181.343 106.913 181.557C105.473 181.77 104.028 181.949 102.578 182.092C101.129 182.234 99.6774 182.341 98.2224 182.413C96.7678 182.484 95.3127 182.52 93.8562 182.52C92.3997 182.52 90.9442 182.484 89.4896 182.413C88.035 182.341 86.5834 182.234 85.1337 182.092C83.6844 181.949 82.2396 181.77 80.7991 181.557C79.3582 181.343 77.924 181.094 76.4957 180.81C75.0668 180.526 73.6468 180.207 72.234 179.853C70.8212 179.499 69.4181 179.111 68.0243 178.688C66.6304 178.266 65.2483 177.809 63.8768 177.318C62.5058 176.828 61.1474 176.303 59.8021 175.746C58.4564 175.189 57.1252 174.599 55.8086 173.976C54.4925 173.353 53.192 172.699 51.9074 172.013C50.6229 171.326 49.3564 170.608 48.1073 169.859C46.8582 169.111 45.6281 168.332 44.417 167.523C43.2063 166.714 42.016 165.875 40.8461 165.008C39.6762 164.14 38.5287 163.244 37.4026 162.321C36.2769 161.397 35.1746 160.446 34.0955 159.468C33.0165 158.49 31.9618 157.486 30.9323 156.456C29.9024 155.426 28.8982 154.372 27.9202 153.293C26.9422 152.214 25.9915 151.111 25.0674 149.985C24.1434 148.859 23.248 147.712 22.3803 146.542C21.5126 145.372 20.6746 144.182 19.8652 142.971C19.0563 141.76 18.2775 140.53 17.5283 139.281C16.7797 138.032 16.0621 136.765 15.3756 135.481C14.6892 134.196 14.0348 132.896 13.4119 131.579C12.7891 130.263 12.1993 128.932 11.6421 127.586C11.0848 126.241 10.5606 124.882 10.0699 123.511C9.57923 122.14 9.12256 120.757 8.69989 119.364C8.27722 117.97 7.88904 116.567 7.53487 115.154C7.18119 113.741 6.862 112.321 6.57779 110.893C6.29407 109.464 6.04484 108.03 5.83107 106.589C5.6178 105.149 5.4395 103.704 5.29666 102.254C5.15383 100.805 5.04695 99.3532 4.97553 97.8986C4.90363 96.4436 4.86816 94.9885 4.86816 93.532C4.86816 92.0755 4.90363 90.6199 4.97553 89.1654C5.04695 87.7108 5.15383 86.2592 5.29666 84.8094C5.4395 83.3602 5.6178 81.9154 5.83107 80.4749C6.04484 79.0339 6.29407 77.5998 6.57779 76.1714C6.862 74.7426 7.18119 73.3225 7.53487 71.9098C7.88904 70.497 8.27722 69.0939 8.69989 67.7001C9.12256 66.3062 9.57923 64.924 10.0699 63.5526C10.5606 62.1815 11.0848 60.8232 11.6421 59.4779C12.1993 58.1322 12.7891 56.801 13.4119 55.4844C14.0348 54.1683 14.6892 52.8677 15.3756 51.5832C16.0621 50.2987 16.7797 49.0321 17.5283 47.7831C18.2775 46.534 19.0563 45.3039 19.8652 44.0927C20.6746 42.882 21.5126 41.6918 22.3803 40.5219C23.248 39.352 24.1434 38.2045 25.0674 37.0784C25.9915 35.9527 26.9422 34.8504 27.9202 33.7713C28.8982 32.6923 29.9024 31.6376 30.9323 30.6081C31.9618 29.5782 33.0165 28.5739 34.0955 27.596C35.1746 26.618 36.2769 25.6672 37.4026 24.7432C38.5287 23.8192 39.6762 22.9238 40.8461 22.0561C42.016 21.1884 43.2063 20.3503 44.417 19.541C45.6281 18.7321 46.8582 17.9533 48.1073 17.2041C49.3564 16.4555 50.6229 15.7379 51.9074 15.0514C53.192 14.3649 54.4925 13.7105 55.8086 13.0877C57.1252 12.4649 58.4564 11.8751 59.8021 11.3178C61.1474 10.7606 62.5058 10.2364 63.8768 9.7457C65.2483 9.25501 66.6304 8.79834 68.0243 8.37567C69.4181 7.953 70.8212 7.56482 72.234 7.21065C73.6468 6.85697 75.0668 6.53778 76.4957 6.25357C77.924 5.96985 79.3582 5.72062 80.7991 5.50686C82.2396 5.29358 83.6844 5.11528 85.1337 4.97245C86.5834 4.82961 88.035 4.72273 89.4896 4.65131C90.9442 4.57941 92.3997 4.54395 93.8562 4.54395C95.3127 4.54395 96.7678 4.57941 98.2224 4.65131C99.6774 4.72273 101.129 4.82961 102.578 4.97245C104.028 5.11528 105.473 5.29358 106.913 5.50686C108.354 5.72062 109.788 5.96985 111.217 6.25357C112.645 6.53778 114.066 6.85697 115.478 7.21065C116.891 7.56482 118.294 7.953 119.688 8.37567C121.082 8.79834 122.464 9.25501 123.835 9.7457C125.207 10.2364 126.565 10.7606 127.91 11.3178C129.256 11.8751 130.587 12.4649 131.903 13.0877C133.22 13.7105 134.52 14.3649 135.805 15.0514C137.089 15.7379 138.356 16.4555 139.605 17.2041C140.854 17.9533 142.084 18.7321 143.295 19.541C144.506 20.3503 145.696 21.1884 146.866 22.0561C148.036 22.9238 149.184 23.8192 150.309 24.7432C151.436 25.6672 152.538 26.618 153.617 27.596C154.696 28.5739 155.751 29.5782 156.78 30.6081C157.81 31.6376 158.814 32.6923 159.792 33.7713C160.77 34.8504 161.721 35.9527 162.645 37.0784C163.569 38.2045 164.464 39.352 165.332 40.5219C166.199 41.6918 167.038 42.882 167.847 44.0927C168.656 45.3039 169.435 46.534 170.184 47.7831C170.932 49.0321 171.65 50.2987 172.337 51.5832C173.023 52.8677 173.678 54.1683 174.301 55.4844C174.923 56.801 175.513 58.1322 176.07 59.4779C176.628 60.8232 177.152 62.1815 177.643 63.5526C178.133 64.924 178.59 66.3062 179.013 67.7001C179.435 69.0939 179.823 70.497 180.178 71.9098C180.531 73.3225 180.85 74.7426 181.134 76.1714C181.418 77.5998 181.667 79.0339 181.881 80.4749C182.095 81.9154 182.273 83.3602 182.416 84.8094C182.559 86.2592 182.665 87.7108 182.737 89.1654C182.808 90.6199 182.844 92.0755 182.844 93.532Z" fill="white"/>
</g>
<path d="M17.5317 93.5295C17.5317 123.753 35.0857 149.85 60.5547 162.224L24.1356 62.4584C19.8967 71.9617 17.5317 82.4434 17.5317 93.5295ZM145.388 89.6842C145.388 80.2562 141.998 73.7087 139.103 68.6411C135.23 62.2996 131.591 57.0211 131.591 50.7403C131.591 43.7526 136.935 37.1905 144.424 37.1905C144.761 37.1905 145.065 37.2187 145.403 37.228C131.825 24.7558 113.732 17.2012 93.8552 17.2012C67.1823 17.2012 43.7174 30.8962 30.0695 51.6206C31.868 51.6585 33.5495 51.6862 34.9968 51.6862C42.9585 51.6862 55.3374 50.7403 55.3374 50.7403C59.4402 50.4638 59.9416 56.5245 55.8106 57.0211C55.8106 57.0211 51.6888 57.5176 47.0943 57.7376L74.8958 140.436L91.5976 90.3493L79.7016 57.7376C75.5988 57.5176 71.6971 57.0211 71.6971 57.0211C67.5851 56.7495 68.0578 50.4595 72.1655 50.7403C72.1655 50.7403 84.7926 51.6862 92.286 51.6862C100.276 51.6862 112.632 50.7403 112.632 50.7403C116.739 50.4638 117.231 56.5245 113.124 57.0211C113.124 57.0211 108.969 57.5176 104.379 57.7376L131.951 139.789L139.581 114.367C143.459 104.447 145.388 96.2458 145.388 89.6842ZM95.1898 100.19L72.2918 166.743C79.1395 168.781 86.3662 169.858 93.8552 169.858C102.735 169.858 111.26 168.312 119.212 165.53C119.029 165.193 118.809 164.847 118.655 164.476L95.1898 100.19ZM160.845 56.8899C161.182 59.3205 161.364 61.9342 161.364 64.735C161.364 72.5 159.898 81.207 155.548 92.1104L132.242 159.535C154.934 146.309 170.184 121.696 170.184 93.5344C170.184 80.2655 166.788 67.7836 160.845 56.8899Z" fill="#01579B"/>
<mask id="mask1_201_477" style="mask-type:luminance" maskUnits="userSpaceOnUse" x="4" y="4" width="179" height="179">
<path d="M4.86816 4.54395H182.844V182.52H4.86816V4.54395Z" fill="white"/>
</mask>
<g mask="url(#mask1_201_477)">
<path d="M4.86816 93.532C4.86816 142.583 44.777 182.52 93.8562 182.52C142.935 182.52 182.844 142.583 182.844 93.532C182.844 44.4809 142.935 4.54395 93.8562 4.54395C44.777 4.54395 4.86816 44.4809 4.86816 93.532ZM8.94766 93.532C8.94766 46.7381 47.0249 8.65162 93.8514 8.65162C140.683 8.65162 178.76 46.7381 178.76 93.532C178.76 140.325 140.683 178.422 93.8562 178.422C47.0346 178.422 8.94766 140.325 8.94766 93.532Z" fill="#01579B"/>
</g>
</svg>
